<svg height="64" width="64" xmlns="http://www.w3.org/2000/svg"><path d="m-1-1h582v402h-582z" fill="none"/><ellipse cx="32" cy="33.32" rx="24" ry="6.22"/><path d="m40.73 11.14c-.27-1.45-1.51-2.51-2.95-2.51-.79 0-1.56.33-2.12.93-.51.55-1.03 1.09-1.55 1.64-1.17 1.25-3.07 1.25-4.24 0-.52-.55-1.03-1.1-1.55-1.64-.56-.6-1.32-.93-2.12-.93-1.44 0-2.67 1.06-2.95 2.51-1.48 7.87-2.96 13.35-4.41 20.63 8.64 2.07 17.64 2.07 26.28 0-1.43-7.28-2.91-12.76-4.39-20.63z" fill="#191716"/><g fill="#161515"><path d="m36.11 49.75c-2.27-2.27-5.96-2.27-8.23 0l-1.66-1.66c3.18-3.18 8.36-3.18 11.54 0z"/><circle cx="23.51" cy="48.92" r="6.45"/><circle cx="40.49" cy="48.92" r="6.45"/></g></svg>